<svg id="Outline" xmlns="http://www.w3.org/2000/svg" width="40" height="40" viewBox="0 0 40 40">
  <defs>
    <style>
      .cls-1 {
        fill: none;
      }
    </style>
  </defs>
  <g>
    <rect class="cls-1" width="40" height="40"/>
    <g>
      <path d="M17,18H6a1,1,0,0,1-1-1V6A1,1,0,0,1,6,5H17a1,1,0,0,1,1,1V17A1,1,0,0,1,17,18ZM7,16h9V7H7Z"/>
      <path d="M34,18H23a1,1,0,0,1-1-1V6a1,1,0,0,1,1-1H34a1,1,0,0,1,1,1V17A1,1,0,0,1,34,18ZM24,16h9V7H24Z"/>
      <path d="M17,35H6a.99974.99974,0,0,1-1-1V23a.99974.99974,0,0,1,1-1H17a.99974.99974,0,0,1,1,1V34A.99974.99974,0,0,1,17,35ZM7,33h9V24H7Z"/>
      <path d="M34,35H23a.99974.99974,0,0,1-1-1V23a.99974.99974,0,0,1,1-1H34a.99974.99974,0,0,1,1,1V34A.99974.99974,0,0,1,34,35ZM24,33h9V24H24Z"/>
    </g>
  </g>
</svg>
