<svg width="42" height="55" viewBox="0 0 42 55" fill="none" xmlns="http://www.w3.org/2000/svg">
<path fill-rule="evenodd" clip-rule="evenodd" d="M21 0C32.598 0 42 9.40202 42 21C42 22.4157 41.8599 23.7986 41.5929 25.1358C39.7394 39.1032 21.1104 55 21.1104 55C21.1104 55 5.25689 41.4717 1.34456 28.4096C0.475507 26.1054 0 23.6083 0 21C0 9.40202 9.40202 0 21 0Z" fill="black"/>
<g clip-path="url(#clip0_14_123)">
<path d="M26.05 30.1583H27.4333C28.1333 30.1583 28.7083 29.625 28.7917 28.9417L30.1667 15.2083H26V11.8333H24.3583V15.2083H20.2167L20.4667 17.1583C21.8917 17.55 23.225 18.2583 24.025 19.0417C25.225 20.225 26.05 21.45 26.05 23.45V30.1583ZM11.8333 29.325V28.5H24.3583V29.325C24.3583 29.7833 23.9833 30.1583 23.5167 30.1583H12.675C12.2083 30.1583 11.8333 29.7833 11.8333 29.325ZM24.3583 23.4917C24.3583 16.825 11.8333 16.825 11.8333 23.4917H24.3583ZM11.85 25.1667H24.35V26.8333H11.85V25.1667Z" fill="white"/>
</g>
<defs>
<clipPath id="clip0_14_123">
<rect width="20" height="20" fill="white" transform="translate(11 11)"/>
</clipPath>
</defs>
</svg>
